# Aspose.3D Wavefront OBJ Exporter
# Copyright 2004-2020 Aspose Pty Ltd.
# File created: 04/26/2021 10:49:00


#
# object Plane
#

v -100 1.6292067961387602E-05 99.9999999999986784
v 99.7596144676208496 4.92931701388412688 99.70324555197041152
v -100 -1.6292067961387602E-05 -99.9999999999986784
v 97.31403589248657228 34.21665295808802652 -99.7035082296309696
v -100 0 0
v 0.10299384593963624 1.45398778233188096 99.999999763116648
v 99.81097579002380368 12.56487215482895968 -0.30952868799934596
v 0.10299384593963624 1.45395519819595816 -100.00000023688070882
v 0.10299384593963624 1.45397149026390424 -3.309464684549439E-07
v -100 8.146033980693801E-06 49.9999999999993392
v 50.04988908767700195 4.03387201342239265 99.99999934280016592
v 98.56250882148742672 17.91753252234658336 -50.00651174634671747
v -49.87686276435852048 0.03487179663519367 -100.000000005682665
v -100 -8.146033980693801E-06 -49.9999999999993392
v -49.87686276435852048 0.03490438077111644 99.99999999431469184
v 99.34864044189453124 8.5578865540997828 49.83677724649103872
v 48.27213287353515624 13.530618129677654 -99.52049475812975744
v 0.10299384593963624 1.45396334422993888 -50.00000023688136252
v 0.10299384593963624 1.45397963629790024 49.99999976311731584
v -49.87686276435852048 0.03488808870310867 -2.9041485223285914E-07
v 50.03009438514709472 4.73103635013098864 -6.742822949847651E-07
v 50.07081031799316406 3.29707744227474376 49.9999994628385664
v -49.87686276435852048 0.03489623473713575 49.99999999431534544
v -49.87686276435852048 0.03487994266917436 -50.00000000568333291
v 49.92689490318298336 8.36565723015228 -50.00000136293922992
# 25 vertices

vn -0.1895199418067932 0.97686697661520272 0.098757733695231
vn -0.23230689764022828 0.96069219201329872 0.15179891133825874
vn -0.28870511054992676 0.93395796867211312 0.21048600656753556
vn -0.24048584699630736 0.96151616352505776 0.1327858788868549
vn -0.01452681049704551 0.99987792968748656 -1.629007915227021E-07
vn -0.0873439759016037 0.99591052900627024 0.02261405231491065
vn -0.10943937301635742 0.99362165175823232 0.02700871804826688
vn -0.01452681049704551 0.99987792968748656 -1.629007915227021E-07
vn -0.01452681049704551 0.99987792968748656 -1.629007915227021E-07
vn -0.03802606463432312 0.999267578408396 0.00173939223715913
vn -0.05240027979016304 0.99853509870378976 0.01263450022927947
vn -0.01452681049704551 0.99987792968748656 -1.629007915227021E-07
vn -0.07196264714002609 0.99713129168619456 0.02230886888419247
vn -0.09656056761741638 0.99444562869454848 0.04129138033548896
vn -0.15201269090175628 0.98571736796398144 0.07217611704373939
vn -0.11410870403051376 0.99224830465323488 0.04858530538277162
vn -0.03802606463432312 0.999267578408396 0.00173939223715913
vn -0.07196264714002609 0.99713129168619456 0.02230886888419247
vn -0.11410870403051376 0.99224830465323488 0.04858530538277162
vn -0.05240027979016304 0.99853509870378976 0.01263450022927947
vn -0.03628650680184364 0.99932861268458512 -0.00366238394500539
vn -0.05304116755723953 0.9985045808323112 0.01083390817684448
vn -0.07196264714002609 0.99713129168619456 0.02230886888419247
vn -0.03802606463432312 0.999267578408396 0.00173939223715913
vn -0.05304116755723953 0.9985045808323112 0.01083390817684448
vn -0.06189153715968132 0.9976500916230968 0.02911449547515587
vn -0.09656056761741638 0.99444562869454848 0.04129138033548896
vn -0.07196264714002609 0.99713129168619456 0.02230886888419247
vn -0.00067140720784664 0.9999694824218616 -1.6291570736903793E-07
vn -0.01452681049704551 0.99987792968748656 -1.629007915227021E-07
vn -0.01452681049704551 0.99987792968748656 -1.629007915227021E-07
vn -0.00067140720784664 0.9999694824218616 -1.6291570736903793E-07
vn -0.00067140720784664 0.9999694824218616 -1.6291570736903793E-07
vn -0.01452681049704551 0.99987792968748656 -1.629007915227021E-07
vn -0.01452681049704551 0.99987792968748656 -1.629007915227021E-07
vn -0.00067140720784664 0.9999694824218616 -1.6291570736903793E-07
vn -0.01452681049704551 0.99987792968748656 -1.629007915227021E-07
vn -0.03628650680184364 0.99932861268458512 -0.00366238394500539
vn -0.03802606463432312 0.999267578408396 0.00173939223715913
vn -0.01452681049704551 0.99987792968748656 -1.629007915227021E-07
vn -0.00067140720784664 0.9999694824218616 -1.6291570736903793E-07
vn -0.01452681049704551 0.99987792968748656 -1.629007915227021E-07
vn -0.01452681049704551 0.99987792968748656 -1.629007915227021E-07
vn -0.00067140720784664 0.9999694824218616 -1.6291570736903793E-07
vn -0.00067140720784664 0.9999694824218616 -1.6291570736903793E-07
vn -0.01452681049704551 0.99987792968748656 -1.629007915227021E-07
vn -0.01452681049704551 0.99987792968748656 -1.629007915227021E-07
vn -0.00067140720784664 0.9999694824218616 -1.6291570736903793E-07
vn -0.01452681049704551 0.99987792968748656 -1.629007915227021E-07
vn -0.05240027979016304 0.99853509870378976 0.01263450022927947
vn -0.0873439759016037 0.99591052900627024 0.02261405231491065
vn -0.01452681049704551 0.99987792968748656 -1.629007915227021E-07
vn -0.0873439759016037 0.99591052900627024 0.02261405231491065
vn -0.1895199418067932 0.97686697661520272 0.098757733695231
vn -0.24048584699630736 0.96151616352505776 0.1327858788868549
vn -0.10943937301635742 0.99362165175823232 0.02700871804826688
vn -0.05240027979016304 0.99853509870378976 0.01263450022927947
vn -0.11410870403051376 0.99224830465323488 0.04858530538277162
vn -0.1895199418067932 0.97686697661520272 0.098757733695231
vn -0.0873439759016037 0.99591052900627024 0.02261405231491065
vn -0.11410870403051376 0.99224830465323488 0.04858530538277162
vn -0.15201269090175628 0.98571736796398144 0.07217611704373939
vn -0.23230689764022828 0.96069219201329872 0.15179891133825874
vn -0.1895199418067932 0.97686697661520272 0.098757733695231
# 64 vertex normals

vt 0 0.75 0
vt 0.25 0.75 0
vt 0 0.25 0
vt 0.25 0.5 0
vt 0.5 0 0
vt 0.25 0.25 0
vt 1 0 0
vt 0.25 1 0
vt 0.5 0.5 0
vt 0.5 0.25 0
vt 0 0.5 0
vt 0 0 0
vt 0.75 0.25 0
vt 1 0.75 0
vt 1 1 0
vt 1 0.5 0
vt 0.5 0.75 0
vt 0 1 0
vt 0.25 0 0
vt 0.75 0.75 0
vt 1 0.25 0
vt 0.75 0 0
vt 0.75 0.5 0
vt 0.5 1 0
vt 0.75 1 0
# 25 texture coords

g Plane
s 1
f 25/20/1 12/14/2 4/15/3 17/25/4
f 24/2/5 18/17/6 8/24/7 13/8/8
f 23/6/9 19/10/10 9/9/11 20/4/12
f 22/13/13 16/21/14 7/16/15 21/23/16
f 19/10/17 22/13/18 21/23/19 9/9/20
f 6/5/21 11/22/22 22/13/23 19/10/24
f 11/22/25 2/7/26 16/21/27 22/13/28
f 10/3/29 23/6/30 20/4/31 5/11/32
f 1/12/33 15/19/34 23/6/35 10/3/36
f 15/19/37 6/5/38 19/10/39 23/6/40
f 14/1/41 24/2/42 13/8/43 3/18/44
f 5/11/45 20/4/46 24/2/47 14/1/48
f 20/4/49 9/9/50 18/17/51 24/2/52
f 18/17/53 25/20/54 17/25/55 8/24/56
f 9/9/57 21/23/58 25/20/59 18/17/60
f 21/23/61 7/16/62 12/14/63 25/20/64
#16 polygons


#
# object Plane.001
#

v -100 1.6292067961387602E-05 -128.2935180664075574
v 98.58918190002441408 21.9389571747504704 -128.29352164071474364
v -100 -1.6292067961387602E-05 -328.2935180664049426
v 99.1311788558959961 19.8045388856203744 -328.293521292976493
v -100 0 -228.29351806640625
v 0.36231875419616696 0.82821761581558528 -128.29351820133871344
v 99.1311788558959961 19.80455517768841392 -228.29352081534531748
v 0.03284811973571777 2.64068423446751456 -328.29351849662964468
v 0.03284811973571777 2.64070052653544792 -228.29351866876422152
v -100 8.146033980693801E-06 -178.29351806640690368
v 50.40425062179565432 8.58932574603208112 -128.29351946578370304
v 99.1311788558959961 19.80454703165435504 -278.29352129297717512
v -49.90145564079284672 0.07839175548891471 -328.2935180791791936
v -100 -8.146033980693801E-06 -278.29351806640556788
v -49.90145564079284672 0.07842433962483748 -128.29351807918186524
v 99.7229158878326416 16.43429915116834648 -178.29352074389277048
v 50.67763924598693848 6.71006302025647376 -328.2935191596155846
v 0.03284811973571777 2.6406923805014952 -278.2935184966303268
v 0.03284811973571777 2.64070867256945664 -178.2935184966316342
v -49.90145564079284672 0.07840804755679197 -228.2935185955802524
v 50.77419877052307136 7.09226951003057504 -228.29351969738735308
v 50.67763328552246096 6.71008745835841584 -178.29351915961760256
v -49.90145564079284672 0.07841619359085679 -178.29351807918121152
v -49.90145564079284672 0.0783999015228954 -278.29351807917987572
v 50.7742047309875488 7.09226136399667162 -278.29351922188294564
# 25 vertices

vn -0.17145298421382904 0.98516797990569712 -0.00177023405219589
vn -0.25589770078659056 0.96667379113008848 -0.00170919402021496
vn -0.25754570960998536 0.96624654475790112 -0.00341823047967193
vn -0.17114779353141784 0.98522901476859328 -0.00357082611954662
vn -0.02639850974082947 0.99963378906248656 -1.6286101600648806E-07
vn -0.06839197874069214 0.99765008673055392 -0.00091571782125721
vn -0.06747642159461975 0.99771112173266896 -0.00186179162407584
vn -0.02639850974082947 0.99963378906248656 -1.6286101600648806E-07
vn -0.02185125276446342 0.999725342537704 0.00454709503175676
vn -0.0711386427283287 0.99743646470295856 0.00534057665029918
vn -0.06839197874069214 0.99765008702887984 0.00091539274559726
vn -0.02639850974082947 0.99963378906248656 -1.6286101600648806E-07
vn -0.16415905952453614 0.98638874153153632 -0.00854534334844481
vn -0.22763755917549132 0.97354042227257872 -0.0185859299321176
vn -0.23935666680336 0.97073275156627984 0.01876872608914193
vn -0.16299936175346374 0.98654133250486112 0.01037613248419144
vn -0.0711386427283287 0.99743646470295856 0.00534057665029918
vn -0.16415905952453614 0.98638874153153632 -0.00854534334844481
vn -0.16299936175346374 0.98654133250486112 0.01037613248419144
vn -0.06839197874069214 0.99765008702887984 0.00091539274559726
vn -0.07501449435949326 0.99713128948355552 0.00878916826759457
vn -0.173955500125885 0.98400830605495728 -0.03787362960841967
vn -0.16415905952453614 0.98638874153153632 -0.00854534334844481
vn -0.0711386427283287 0.99743646470295856 0.00534057665029918
vn -0.173955500125885 0.98400830605495728 -0.03787362960841967
vn -0.23023164272308348 0.97024445506188768 -0.07486206454175504
vn -0.22763755917549132 0.97354042227257872 -0.0185859299321176
vn -0.16415905952453614 0.98638874153153632 -0.00854534334844481
vn -0.0015564439818263 0.9999694824218616 -1.6291570736903793E-07
vn -0.02185125276446342 0.999725342537704 0.00454709503175676
vn -0.02639850974082947 0.99963378906248656 -1.6286101600648806E-07
vn -0.0015564439818263 0.9999694824218616 -1.6291570736903793E-07
vn -0.0015564439818263 0.9999694824218616 -1.6291570736903793E-07
vn -0.01727347634732723 0.99978637843479648 0.00909435292950133
vn -0.02185125276446342 0.999725342537704 0.00454709503175676
vn -0.0015564439818263 0.9999694824218616 -1.6291570736903793E-07
vn -0.01727347634732723 0.99978637843479648 0.00909435292950133
vn -0.07501449435949326 0.99713128948355552 0.00878916826759457
vn -0.0711386427283287 0.99743646470295856 0.00534057665029918
vn -0.02185125276446342 0.999725342537704 0.00454709503175676
vn -0.0015564439818263 0.9999694824218616 -1.6291570736903793E-07
vn -0.02639850974082947 0.99963378906248656 -1.6286101600648806E-07
vn -0.02639850974082947 0.99963378906248656 -1.6286101600648806E-07
vn -0.0015564439818263 0.9999694824218616 -1.6291570736903793E-07
vn -0.0015564439818263 0.9999694824218616 -1.6291570736903793E-07
vn -0.02639850974082947 0.99963378906248656 -1.6286101600648806E-07
vn -0.02639850974082947 0.99963378906248656 -1.6286101600648806E-07
vn -0.0015564439818263 0.9999694824218616 -1.6291570736903793E-07
vn -0.02639850974082947 0.99963378906248656 -1.6286101600648806E-07
vn -0.06839197874069214 0.99765008702887984 0.00091539274559726
vn -0.06839197874069214 0.99765008673055392 -0.00091571782125721
vn -0.02639850974082947 0.99963378906248656 -1.6286101600648806E-07
vn -0.06839197874069214 0.99765008673055392 -0.00091571782125721
vn -0.17145298421382904 0.98516797990569712 -0.00177023405219589
vn -0.17114779353141784 0.98522901476859328 -0.00357082611954662
vn -0.06747642159461975 0.99771112173266896 -0.00186179162407584
vn -0.06839197874069214 0.99765008702887984 0.00091539274559726
vn -0.16299936175346374 0.98654133250486112 0.01037613248419144
vn -0.17145298421382904 0.98516797990569712 -0.00177023405219589
vn -0.06839197874069214 0.99765008673055392 -0.00091571782125721
vn -0.16299936175346374 0.98654133250486112 0.01037613248419144
vn -0.23935666680336 0.97073275156627984 0.01876872608914193
vn -0.25589770078659056 0.96667379113008848 -0.00170919402021496
vn -0.17145298421382904 0.98516797990569712 -0.00177023405219589
# 64 vertex normals

vt 0 0.75 0
vt 0.25 0.75 0
vt 0 0.25 0
vt 0.25 0.5 0
vt 0.5 0 0
vt 0.25 0.25 0
vt 1 0 0
vt 0.25 1 0
vt 0.5 0.5 0
vt 0.5 0.25 0
vt 0 0.5 0
vt 0 0 0
vt 0.75 0.25 0
vt 1 0.75 0
vt 1 1 0
vt 1 0.5 0
vt 0.5 0.75 0
vt 0 1 0
vt 0.25 0 0
vt 0.75 0.75 0
vt 1 0.25 0
vt 0.75 0 0
vt 0.75 0.5 0
vt 0.5 1 0
vt 0.75 1 0
# 25 texture coords

g Plane.001
s 2
f 50/45/65 37/39/66 29/40/67 42/50/68
f 49/27/69 43/42/70 33/49/71 38/33/72
f 48/31/73 44/35/74 34/34/75 45/29/76
f 47/38/77 41/46/78 32/41/79 46/48/80
f 44/35/81 47/38/82 46/48/83 34/34/84
f 31/30/85 36/47/86 47/38/87 44/35/88
f 36/47/89 27/32/90 41/46/91 47/38/92
f 35/28/93 48/31/94 45/29/95 30/36/96
f 26/37/97 40/44/98 48/31/99 35/28/100
f 40/44/101 31/30/102 44/35/103 48/31/104
f 39/26/105 49/27/106 38/33/107 28/43/108
f 30/36/109 45/29/110 49/27/111 39/26/112
f 45/29/113 34/34/114 43/42/115 49/27/116
f 43/42/117 50/45/118 42/50/119 33/49/120
f 34/34/121 46/48/122 50/45/123 43/42/124
f 46/48/125 32/41/126 37/39/127 50/45/128
#16 polygons

